<?xml version="1.0" standalone="no"?>
<!DOCTYPE svg PUBLIC "-//W3C//DTD SVG 20010904//EN"
 "http://www.w3.org/TR/2001/REC-SVG-20010904/DTD/svg10.dtd">
<svg width="109.135" height="16.33" viewBox="0 0 109.135 16.33" xmlns="http://www.w3.org/2000/svg">
    <g id="svgGroup" stroke-linecap="round" fill-rule="evenodd" font-size="12pt" stroke="#000" stroke-width="0.5mm" fill="none" style="stroke:#000;stroke-width:0.5mm;fill:none">
        <path stroke="black" d="M 63.25 10.235 L 60.605 10.235 L 60.605 8.165 L 65.55 8.165 L 65.55 14.789 L 62.882 16.33 L 56.833 16.33 L 54.165 14.789 L 54.165 1.541 L 56.833 0 L 62.882 0 L 65.55 1.541 L 65.55 4.14 L 63.25 4.14 L 63.25 2.07 L 56.465 2.07 L 56.465 14.26 L 63.25 14.26 L 63.25 10.235 Z M 9.085 14.26 L 9.085 12.19 L 11.385 12.19 L 11.385 14.789 L 8.717 16.33 L 2.668 16.33 L 0 14.789 L 0 1.541 L 2.668 0 L 8.717 0 L 11.385 1.541 L 11.385 4.14 L 9.085 4.14 L 9.085 2.07 L 2.3 2.07 L 2.3 14.26 L 9.085 14.26 Z M 89.815 2.691 L 85.905 4.945 L 85.905 2.622 L 90.275 0.115 L 92.115 0.115 L 92.115 14.145 L 96.025 14.145 L 96.025 16.215 L 85.905 16.215 L 85.905 14.145 L 89.815 14.145 L 89.815 2.691 Z M 102.925 2.691 L 99.015 4.945 L 99.015 2.622 L 103.385 0.115 L 105.225 0.115 L 105.225 14.145 L 109.135 14.145 L 109.135 16.215 L 99.015 16.215 L 99.015 14.145 L 102.925 14.145 L 102.925 2.691 Z M 43.585 1.656 L 43.585 14.674 L 40.917 16.215 L 31.51 16.215 L 31.51 0.115 L 40.917 0.115 L 43.585 1.656 Z M 27.37 1.541 L 27.37 14.789 L 24.702 16.33 L 17.963 16.33 L 15.295 14.789 L 15.295 1.541 L 17.963 0 L 24.702 0 L 27.37 1.541 Z M 81.765 1.541 L 81.765 14.789 L 79.097 16.33 L 72.358 16.33 L 69.69 14.789 L 69.69 1.541 L 72.358 0 L 79.097 0 L 81.765 1.541 Z M 25.07 2.07 L 17.595 2.07 L 17.595 14.26 L 25.07 14.26 L 25.07 2.07 Z M 79.465 2.07 L 71.99 2.07 L 71.99 14.26 L 79.465 14.26 L 79.465 2.07 Z M 41.285 2.185 L 33.81 2.185 L 33.81 14.145 L 41.285 14.145 L 41.285 2.185 Z M 50.025 16.215 L 47.725 16.215 L 47.725 0.115 L 50.025 0.115 L 50.025 16.215 Z" vector-effect="non-scaling-stroke"/></g></svg>